<?xml version="1.0" encoding="UTF-8" standalone="no"?>
<svg
   xmlns:dc="http://purl.org/dc/elements/1.1/"
   xmlns:cc="http://creativecommons.org/ns#"
   xmlns:rdf="http://www.w3.org/1999/02/22-rdf-syntax-ns#"
   xmlns:svg="http://www.w3.org/2000/svg"
   xmlns="http://www.w3.org/2000/svg"
   xmlns:sodipodi="http://sodipodi.sourceforge.net/DTD/sodipodi-0.dtd"
   xmlns:inkscape="http://www.inkscape.org/namespaces/inkscape"
   version="1.1"
   x="0px"
   y="0px"
   viewBox="0 0 1000 1000"
   enable-background="new 0 0 1000 1000"
   xml:space="preserve"
   id="svg907"
   sodipodi:docname="info_icon.svg"
   inkscape:version="1.0.2 (e86c8708, 2021-01-15)"><metadata
   id="metadata913"><rdf:RDF><cc:Work
       rdf:about=""><dc:format>image/svg+xml</dc:format><dc:type
         rdf:resource="http://purl.org/dc/dcmitype/StillImage" /></cc:Work></rdf:RDF></metadata><defs
   id="defs911" /><sodipodi:namedview
   pagecolor="#ffffff"
   bordercolor="#666666"
   borderopacity="1"
   objecttolerance="10"
   gridtolerance="10"
   guidetolerance="10"
   inkscape:pageopacity="0"
   inkscape:pageshadow="2"
   inkscape:window-width="1920"
   inkscape:window-height="1147"
   id="namedview909"
   showgrid="false"
   inkscape:zoom="0.64"
   inkscape:cx="945.92717"
   inkscape:cy="457.40149"
   inkscape:window-x="1440"
   inkscape:window-y="25"
   inkscape:window-maximized="1"
   inkscape:current-layer="svg907" />
<path
   d="m 435.94,12.39 c -58.8,8.49 -106.78,23.35 -158.15,49.46 -95.53,48.4 -171.31,125.25 -218.65,221.83 -22.5,46.07 -35.24,85.34 -45,138.41 -5.52,30.57 -5.52,124.4 0,154.97 9.77,53.07 22.5,92.34 45,138.41 61.14,124.61 171.74,217.58 305.26,256.22 84.91,24.62 185.53,24.62 270.45,0 131.19,-38 240.94,-129.07 302.71,-250.92 36.09,-71.11 52.43,-140.11 52.43,-221.2 0,-81.3 -16.35,-149.87 -52.64,-221.83 C 889.16,182.42 811.89,106.22 715.51,59.09 670.08,36.8 633.57,24.91 582.41,15.15 552.91,9.63 466.3,7.93 435.94,12.39 Z m 91.07,75.36 c 101.05,7 192.76,48.61 264.29,120.15 62.84,62.84 101.68,139.04 116.12,227.99 5.73,33.96 5.95,90.43 0.85,123.12 -28.66,182.77 -166.43,320.55 -349.2,349.2 -32.69,5.1 -89.16,4.88 -123.12,-0.85 C 300.09,885.07 187.79,801.86 127.93,678.94 51.5,521.65 83.56,332.3 207.95,207.9 277.36,138.48 371.83,94.75 467.15,87.96 c 12.53,-1.06 24.41,-1.91 26.11,-1.91 1.7,-0.21 16.98,0.64 33.75,1.7 z"
   id="path897"
   style="stroke-width:2;fill:#0065b3;fill-opacity:1;stroke:#d9d9d9;stroke-opacity:1;stroke-miterlimit:4;stroke-dasharray:none" /><path
   d="m 529.35,218.73 c -19.32,6.58 -35.87,22.71 -42.03,40.76 -1.49,4.03 -2.55,13.59 -2.55,21.44 0,55.41 72.81,83.43 115.48,44.37 15.28,-14.01 21.01,-26.32 21.23,-45.43 0.21,-18.89 -7.22,-35.24 -21.44,-47.55 -18.05,-16.14 -47.55,-21.66 -70.69,-13.59 z"
   id="path899"
   style="stroke-width:0.1;fill:#e600a1;fill-opacity:1" /><path
   d="m 468.85,403.41 c -12.52,1.7 -32.27,7.43 -57.74,16.98 -25.47,9.34 -26.11,9.76 -28.23,17.19 -2.97,10.4 -5.09,23.78 -3.82,23.78 0.64,0 6.58,-1.91 13.59,-4.46 15.5,-5.31 41.18,-5.94 52.65,-1.06 9.76,4.03 14.01,13.38 14.01,30.99 0,17.83 -4.03,35.66 -23.14,103.59 -19.11,66.87 -22.29,84.28 -21.02,109.11 0.64,14.43 2.12,19.74 7,28.87 11.68,21.65 31.63,34.39 60.5,38.85 30.57,4.67 59.23,-0.64 107.2,-19.95 l 16.98,-6.79 3.82,-14.43 c 2.12,-8.07 3.61,-15.07 3.18,-15.5 -0.42,-0.42 -7,1.27 -14.43,3.61 -16.13,5.1 -48.61,4.88 -56.89,-0.21 -7.22,-4.88 -11.04,-15.07 -11.04,-30.36 0,-18.68 3.61,-34.39 23.35,-104.44 17.83,-63.05 22.29,-86.4 20.8,-109.11 -2.54,-34.81 -25.47,-59.01 -62.41,-65.81 -11.88,-2.34 -31.41,-2.55 -44.36,-0.85 z"
   id="path901"
   style="stroke-width:0.1;fill:#e600a1;fill-opacity:1" />
</svg>
