<?xml version="1.0" encoding="UTF-8" standalone="no"?>
<svg
   xmlns:dc="http://purl.org/dc/elements/1.1/"
   xmlns:cc="http://creativecommons.org/ns#"
   xmlns:rdf="http://www.w3.org/1999/02/22-rdf-syntax-ns#"
   xmlns:svg="http://www.w3.org/2000/svg"
   xmlns="http://www.w3.org/2000/svg"
   xmlns:sodipodi="http://sodipodi.sourceforge.net/DTD/sodipodi-0.dtd"
   xmlns:inkscape="http://www.inkscape.org/namespaces/inkscape"
   width="51.091007mm"
   height="47.99987mm"
   viewBox="0 0 51.091007 47.99987"
   version="1.1"
   id="svg995"
   inkscape:version="1.0.2 (e86c8708, 2021-01-15)"
   sodipodi:docname="poetic_bknd.svg">
  <defs
     id="defs989">
    <linearGradient
       id="linearGradient24213"
       x1="183.25999"
       gradientUnits="userSpaceOnUse"
       y1="24.579"
       gradientTransform="translate(17.678,-1.1785)"
       x2="328.79999"
       y2="-72.058998">
      <stop
         id="stop22899"
         stop-color="#a05a2c"
         offset="0" />
      <stop
         id="stop22901"
         stop-color="#520"
         stop-opacity="0"
         offset="1" />
    </linearGradient>
  </defs>
  <sodipodi:namedview
     id="base"
     pagecolor="#ffffff"
     bordercolor="#666666"
     borderopacity="1.0"
     inkscape:pageopacity="0.0"
     inkscape:pageshadow="2"
     inkscape:zoom="2.8"
     inkscape:cx="142.97851"
     inkscape:cy="185.7084"
     inkscape:document-units="mm"
     inkscape:current-layer="layer1"
     inkscape:document-rotation="0"
     showgrid="false"
     fit-margin-top="0"
     fit-margin-left="0"
     fit-margin-right="0"
     fit-margin-bottom="0"
     inkscape:window-width="1252"
     inkscape:window-height="847"
     inkscape:window-x="50"
     inkscape:window-y="25"
     inkscape:window-maximized="0" />
  <metadata
     id="metadata992">
    <rdf:RDF>
      <cc:Work
         rdf:about="">
        <dc:format>image/svg+xml</dc:format>
        <dc:type
           rdf:resource="http://purl.org/dc/dcmitype/StillImage" />
        <dc:title></dc:title>
      </cc:Work>
    </rdf:RDF>
  </metadata>
  <g
     inkscape:label="Layer 1"
     inkscape:groupmode="layer"
     id="layer1"
     transform="translate(-65.924734,-192.9584)">
    <g
       id="g24124"
       transform="matrix(0.22849092,0,0,0.23563292,42.768005,217.74463)"
       style="opacity:0.19292605">
      <path
         id="path22919"
         style="color:#000000;text-indent:0;text-transform:none"
         transform="translate(0,-162.99)"
         fill="#d38d5f"
         d="m 210.59,68.906 c -26.86,-0.44 -54.15,11.805 -68.59,34.974 2.689,4.7755 -11.918,16.045 -5.4688,6.5625 -0.98441,-11.397 -9.4933,6.6864 -10.312,10.688 -4.3321,12.176 -4.9836,25.29 -4.4062,38.094 -7.8875,8.9154 15.713,8.1451 6.3438,-0.71875 -5.0146,-44.303 37.36,-86.784 81.656,-82.031 33.102,-0.57597 54.084,13.296 68.451,34.515 -3.6799,-13.107 -8.1292,-16.516 -22.607,-27.203 -12.961,-9.7608 -28.944,-14.611 -45.062,-14.875 z m 82.531,40.062 c -3.8781,0.25527 -6.6341,5.7829 -9.5938,10.906 4.4189,-3.5177 14.559,-3.2673 12.75,-10 -1.1325,-0.68871 -2.1844,-0.97022 -3.1562,-0.90625 z m -12.594,0.90625 c -0.0713,-0.11609 0.12133,0.18721 0.8125,1.3125 -0.40595,-0.66093 -0.7412,-1.1964 -0.8125,-1.3125 z m 2.97,10.03 c -0.77844,0.6274 -1.372,1.3871 -1.6875,2.3125 0.37237,0.38362 1.3869,-1.7941 1.6875,-2.3125 z m -2.09,48.09 c -1.1984,0.19562 -3.9918,4.5269 0.34375,1.5938 0.27812,-1.2817 0.0557,-1.659 -0.34375,-1.5938 z m -143.5,31.031 c -1.5544,0.0989 -5.6907,5.3217 -0.59375,4.125 1.4595,-3.1571 1.3003,-4.17 0.59375,-4.125 z m 8.9688,9.1562 c 0.84948,2.2221 1.8971,4.2939 3.125,6.1875 0.2709,-0.15818 0.7989,-0.26621 1.6875,-0.25 2.3993,2.5518 0.74337,2.491 -0.625,1.8125 8.8915,12.132 25.221,17.399 39.531,20.5 27.797,5.1299 57.795,-4.628 77.438,-24.906 -23.315,7.7261 -44.945,22.845 -70.344,22.5 -19.704,-2.2796 -32.904,-19.14 -50.812,-25.844 z m 4.1875,7.75 c -0.37487,-0.5115 -0.71477,-1.0262 -1.0625,-1.5625 -0.63758,0.37228 0.14328,1.1067 1.0625,1.5625 z m 130.12,-6.3125 c -1.5144,0.0186 -3.885,0.86953 -0.90625,1.8125 2.7363,-1.3372 2.0841,-1.827 0.90625,-1.8125 z m -95.25,36.719 c -0.13755,-0.0201 -0.36321,0.18967 -0.65625,0.78125 0.53668,3.7042 1.2523,-0.6941 0.65625,-0.78125 z m 3.6562,13.188 c -0.67396,-0.0763 -1.2367,0.34408 -0.96875,1.7812 4.5419,0.91506 2.4515,-1.6133 0.96875,-1.7812 z" />
      <path
         id="path22009-1"
         style="color:#000000;text-indent:0;text-transform:none;fill:url(#linearGradient24213)"
         fill="url(#linearGradient24213)"
         d="m 218.23,-105.19 c 0.18943,0.57107 0.2009,1.4015 -0.0312,2.0312 0.95048,0.0227 1.8974,0.0725 2.8438,0.125 -0.8469,-0.87813 -1.7592,-1.635 -2.8125,-2.1562 z m 7.1875,9.9375 c -2.0832,-0.0334 -4.3179,0.42957 -6.7812,1.6875 2.5255,0.96637 5.0525,1.9598 7.5625,2.9688 0.79882,1.2791 1.6071,2.4923 2.5,3.4688 4.1839,0.80451 8.244,1.9563 12.156,3.4062 0.8912,0.13707 1.7853,0.25424 2.6875,0.34375 0.0103,10e-4 0.0209,-0.001 0.0312,0 3.0029,1.2855 6.0013,2.5839 9,3.875 2.6226,1.1776 4.8932,2.2776 6.9688,3.2812 0.19629,0.33676 0.41053,0.65881 0.59375,1.0312 8.6839,7.9982 22.464,14.993 22.625,28.812 1.9941,3.9218 3.6612,8.0376 4.9688,12.312 0.4128,0.12783 0.87327,0.14907 1.3438,0.03125 1.4951,4.7981 2.6481,9.6567 3.2188,14.594 0.58396,1.3403 1.0718,2.1478 1.5,2.5 -0.85625,2.3105 -1.5803,3.7065 -2.75,2.0625 0.0498,1.1398 0.0625,2.2852 0.0625,3.4375 0,1.0889 -0.018,2.1722 -0.0625,3.25 0.95938,1.6776 2.0616,3.3761 3,4.8438 -0.92519,-0.96507 -2.2037,-1.2938 -3.2812,-1.0625 -0.1882,2.0907 -0.42998,4.1487 -0.78125,6.1875 0.0662,0.0909 0.11595,0.18875 0.1875,0.28125 -0.91621,2.0484 -0.43226,4.9809 0.25,8.125 -0.44308,2.6204 -1.0801,5.0316 -1.875,7.3125 1.33,0.0413 2.5374,0.61022 3.4375,1.875 0.003,0.13912 10e-4,0.26892 0,0.40625 0.77247,-1.2044 1.4926,-2.3545 2.3125,-3.625 1.3971,-3.0543 2.762,-6.1458 4,-9.25 0.36204,-1.6676 0.67368,-3.3607 0.9375,-5.0625 -0.40044,-2.904 -1.1933,-5.8527 -1.625,-8.8125 0.25126,-4.404 0.14014,-8.8627 -0.34375,-13.344 0.58795,-0.99847 1.3509,-2.0058 2.1875,-3 -0.13226,-0.96169 -0.27304,-1.9237 -0.4375,-2.875 0.54767,-0.89305 1.1672,-1.7079 1.9062,-2.3125 -3.233,-22.433 -6.1818,15.654 -8.8438,-12.969 -5.8246,-14.967 -15.641,-27.347 -27.844,-36.281 -1.0335,-2.4571 -2.3537,-4.7631 -4.25,-6.5938 -1.779,-1.1243 -3.6051,-2.1929 -5.4688,-3.1875 -0.89175,-0.26831 -1.8553,-0.46785 -2.9062,-0.59375 -2.0973,0.46191 -4.0096,0.49837 -5.8125,0.25 -2.3985,-0.94217 -4.8601,-1.7561 -7.3438,-2.4688 -0.0293,-0.008 -0.0333,-0.0535 -0.0625,-0.0625 -4.3054,-2.1373 -8.2835,-4.7686 -12.969,-4.8438 z m 68.875,111.41 c -0.80963,1.77 -1.6269,3.5208 -2.4688,5.25 -0.14499,0.97391 -0.39189,1.8818 -0.875,2.6875 -0.0413,-0.1897 -0.10854,-0.35403 -0.15625,-0.53125 -4.2916,8.6122 -8.8095,16.471 -12.562,22.5 8.3448,-9.3125 14.688,-20.441 18.375,-32.719 -0.48113,0.60642 -1.0202,1.215 -1.6562,1.8125 -0.23177,0.35859 -0.4282,0.64658 -0.65625,1 z m -79.031,-109.66 c -7.5359,0.0785 -15.175,1.1974 -22.75,3.5 -0.063,0.0191 -0.1245,0.0432 -0.1875,0.0625 -3.6049,0.4821 -7.2,1.2462 -10.688,2.5938 -5.79,3.254 -7.3539,2.2492 -7.7812,-0.375 -8.3478,4.4081 -15.896,10.152 -22.344,16.938 0.44555,0.87048 0.81198,1.6793 1.0625,2.4062 -6.2195,4.6194 -8.9228,14.768 -14.312,21.375 -2.2855,1.4336 -3.3532,2.1387 -3.8438,2.4062 -4.2632,10.209 -6.625,21.411 -6.625,33.156 0,5.587 0.54488,11.051 1.5625,16.344 1.6186,0.47214 3.1309,1.0273 4.375,1.2188 1.2359,11.601 7.4764,21.445 9.6562,23.156 0.18013,0.50266 0.38249,1.0659 0.625,1.6562 -1.3606,0.19162 -2.9318,0.53191 -4.5625,0.90625 4.2225,7.2563 9.4844,13.816 15.562,19.531 0.0282,-0.0758 0.0671,-0.14098 0.0937,-0.21875 1.4892,-0.65163 2.7707,-0.42528 3.8125,0.125 0.52623,0.42408 1.0708,0.84708 1.625,1.25 1.2344,1.242 1.7028,2.2879 1.375,0.96875 2.8664,1.9022 6.1002,3.4825 9.6875,4.5625 0.0504,0.19141 0.0577,0.3523 0.0937,0.53125 -2.3712,-0.56454 -4.7378,-1.2737 -7.0625,-2.3125 -0.60376,0.39104 -1.3134,0.8996 -2.0625,1.4688 2.409,1.7964 4.9384,3.4583 7.5312,5 -6.5675,2.9802 51.853,13.463 80.847,-0.67851 -28.023,17.607 -56.362,7.7076 -72.91,5.781 29.433,14.963 72.46,3.6507 94.156,-15.665 0.005,-0.0096 -0.005,-0.02163 0,-0.03125 2.9361,-5.3894 8.6916,-15.021 18.156,-29.844 -1.1985,-2.778 -3.3828,-3.4484 -5.7188,-2.7812 -2.2579,5.1514 -5.0658,10.013 -8.3438,14.5 0.20406,0.70512 0.52579,1.422 0.9375,2.0938 -2.6801,3.2474 -5.4652,6.4158 -8.1562,9.7812 -3.1748,-3.3738 -37.341,19.09 5.4062,-1.625 -11.902,10.361 -37.697,20.564 -58.531,21.344 -0.0116,0.0231 -0.0197,0.0392 -0.0312,0.0625 -1.3024,0.90497 -2.2196,0.45489 -2.9688,-0.0625 -0.72207,-0.01 -1.4392,-0.0021 -2.1562,-0.03125 -0.0653,0.12925 -0.15265,0.26504 -0.21875,0.4375 -0.0273,-0.15721 -0.0836,-0.31622 -0.125,-0.46875 -6.3616,-0.28847 -12.509,-1.3592 -18.375,-3.0938 -0.045,0.52865 0.0567,1.1486 0.28125,1.8125 -0.34473,-0.10548 -0.6855,-0.21695 -1.0314,-0.3125 -4.9521,-2.6361 -10.19,-3.4582 -15.438,-4.4688 -7.8885,-5.4381 -14.864,-15.265 -27.875,-34.281 -13.18,-13.519 -13.11,-33.594 -2,-43.906 -2.2664,-0.28024 -4.8052,-1.1288 -8.0938,-1.375 -0.97506,-14.49 14.919,-31.288 21.5,-46.375 1.4878,-3.1033 2.8269,-4.8831 4.0312,-5.8125 27.168,-11.783 58.902,-11.519 88.626,2.8346 -19.42,-19.95 -60.602,-14.211 -58.408,-15.928 -0.36343,-0.0358 -0.73365,-0.057 -1.0938,-0.0625 -0.072,-10e-4 -0.14691,-9e-5 -0.21875,0 5.0745,-1.4759 10.362,-2.4678 15.812,-2.875 0.008,-0.0435 0.0234,-0.0817 0.0312,-0.125 3.0046,-0.64258 5.6393,-1.9646 7.25,-5.0938 -0.0627,5.1e-4 -0.12479,-6.5e-4 -0.1875,0 z m -31.969,11.344 c -1.5851,1.14 -3.1397,2.5451 -4.6562,4.2188 -1.3392,0.27091 -2.8404,0.37214 -4.375,0.4375 2.8919,-1.7393 5.9072,-3.3027 9.0312,-4.6562 z m -47.375,34.156 c -0.30835,0.65683 -0.58287,1.3343 -0.875,2 0.34104,-0.5643 0.65905,-1.2441 0.875,-2 z m 158.19,44.719 c 0.33175,0.3623 0.59826,0.80263 0.8125,1.3438 -0.24938,-0.42408 -0.51117,-0.87139 -0.8125,-1.3438 z m 0.8125,1.375 c 1.1082,1.8893 1.6044,3.2307 0.375,3.4688 0.1542,-1.4223 -0.0254,-2.5708 -0.375,-3.4688 z" />
      <path
         id="path23416"
         opacity="0.75983"
         style="color:#000000"
         fill="#a05a2c"
         d="m 298.69,-85.85 c -14.498,-0.05373 -1.0354,-17.225 -9.8668,-17.609 -5.6503,2.5737 8.3173,12.153 -0.84198,23.352 -0.59207,2.3643 -2.7034,2.6502 -4.7966,2.1722 -2.3687,0.05473 -2.2355,2.9773 -3.0196,4.5972 -0.55023,1.9116 -1.0731,3.9874 -0.58169,5.9594 0.71538,1.9323 5.0106,-0.55138 3.8598,1.9314 1.5712,2.263 1.9869,-2.5493 3.9664,-0.688 2.205,0.51561 3.5663,2.6499 2.2214,4.7312 -0.7625,1.5034 -2.585,3.4981 -4.3688,2.2839 -6.2902,1.379 -22.099,-0.82101 -23.447,3.8247 5.7069,11.96 13.355,-8.0023 20.5,1.6545 0.85049,1.9037 1.3228,4.6717 3.7512,5.1274 15.483,3.8996 -0.73933,11.773 6.1605,14.647 3.4962,-1.2249 -2.4059,-11.256 3.2012,-11.982 5.0217,5.1864 2.9126,0.31603 3.4204,-0.9851 2.1819,-1.1058 4.9271,-0.34242 6.9512,-1.8573 0.67404,-2.6811 1.0707,-1.0249 2.4936,-3.6528 7.1624,-0.21179 7.1181,9.8515 16.579,10.019 1.4854,-13.005 -19.412,-3.4752 -7.806,-15.471 0.86362,-1.6074 3.55,-2.1934 1.868,-4.1547 -0.45117,-1.3145 -1.3757,-2.8074 -2.6917,-1.5442 -2.2745,-1.2252 1.6753,-2.0344 2.1661,-3.2973 1.7588,-1.7432 0.12764,-3.7713 -0.41859,-5.6117 -13.891,-14.342 7.7002,-7.2241 4.2414,-12.945 -6.9145,-6.8911 -4.632,11.055 -16.896,1.6679 -2.0292,-0.50651 -4.0605,-1.0979 -5.906,-2.0843 -0.2419,-0.05857 -0.49102,-0.09122 -0.74023,-0.08496 z" />
      <path
         id="path23438"
         style="color:#000000"
         fill="#9e5b2f"
         d="m 129.83,31.941 c 0.57223,0.38002 -0.68168,0.19559 0,0 z m 6.1311,-0.05625 c 1.6903,2.5248 -2.7856,1.7049 0,0 z m 16.256,-4.5562 c 4.2466,0.77256 -2.7019,1.3837 0,0 z m -0.84374,-10.462 c 3.5637,0.76378 0.0875,6.0802 -0.40216,1.6101 0.074,-0.55109 0.27547,-1.0714 0.40216,-1.6101 z m -18.9,-1.407 c 0.93849,0.66443 -0.1531,-1.0414 0,0 z m -1.35,-2.3062 c 2.5646,0.15291 2.2603,4.3736 1.0448,3.3039 0.40414,-1.8384 -4.377,-2.2953 -1.0448,-3.3039 z m 3.2062,-1.6312 c 2.9928,0.24525 -1.8982,1.8038 0,0 z m -32.174,-1.575 c 1.2181,2.3279 -2.3224,2.2162 0,0 z m 32.906,0.84373 c -0.86833,-0.77547 -0.27487,0.79604 0,0 z m 0.56249,-0.33749 c 2.5827,-0.20152 2.5032,-2.1931 0,0 z m -0.89998,0 c 0.77936,1.2296 0.9873,-1.2603 0,0 z m -0.225,-0.16875 c 0.007,0.64815 0.6933,-0.50377 0,0 z m 0.0562,-2.4187 c 6.0361,-1.7015 -0.31062,8.0569 -0.10697,0.61543 z m -6.7498,-3.7687 c 1.3055,-0.39613 -0.18066,1.0652 0,0 z m 2.8687,0.225 c 0.13937,0.43462 0.40098,-0.3646 0,0 z m -0.0563,-0.56249 c 2.3551,-0.6169 -0.28017,2.2255 0,0 z m 21.881,-1.0687 c 2.7684,-0.30363 -2.5906,1.3276 0,0 z m 5.5686,-5.5124 c 0.83608,0.8788 -1.2299,0.04363 0,0 z m -27.787,-0.33749 c 2.7721,0.98025 1.2921,3.5261 0,0 z m 29.362,-0.39374 c 1.122,0.92976 0.0591,1.5822 0,0 z m -0.28124,-0.05625 c 0.3178,-0.49129 0.18695,0.45974 0,0 z m 24.074,-0.16875 c 1.1308,0.23001 -0.46702,0.69498 0,0 z m -23.793,-0.39374 c 0.85348,0.46447 -0.95025,0.53426 0,0 z m -55.293,-0.56249 c -2.3072,1.3521 -1.4096,1.1601 0,0 z m 24.131,-0.39374 c 3.9579,2.5629 -3.0337,0.68929 0,0 z m 1.8,-0.05625 c 3.0925,0.85512 -1.0942,3.2793 0,0 z m 30.149,4.7249 c -0.0691,-1.2793 -1.1132,-0.18101 0,0 z m -1.03,3.5991 c 0.40159,-1.8912 -0.12513,-2.7737 0,0 z m -4.8936,0.89998 c 0.0773,-0.10379 -0.18656,-0.05852 0,0 z m 6.0749,-0.1125 c 0.81346,-0.39797 -1.3029,-0.02327 0,0 z m -1.2375,0.225 c 1.0795,0.29273 -0.36007,-1.0448 0,0 z m 0,0.28124 c 0.37344,-0.66628 -0.8273,0.18494 0,0 z m 0,0.33749 c 0.73815,-0.04419 -0.6212,-0.55276 0,0 z m 10.575,-7.2561 c 3.1198,1.5194 2.9114,-2.7361 0,0 z m -11.475,-2.5312 c 0.67319,0.90405 0.97467,-0.87499 0,0 z m 0,-0.84373 c 3.1342,-0.28666 -0.10614,3.2434 0,0 z m -23.062,-1.2375 c 0.95976,2.2178 -2.3102,-0.45131 0,0 z m -0.73123,-0.61874 c 0.31501,-0.05436 -0.20674,0.27105 0,0 z m 5.6811,-0.84373 c -0.0233,0.83264 -0.98612,-0.30873 0,0 z m -5.6811,-2.4749 c -0.33946,2.0391 1.7469,1.7633 0,0 z m 0,-0.225 c 3.5926,1.9222 -0.99104,4.1322 0,0 z m -9.6185,-1.2937 c 0.26862,1.0286 -0.93669,1.2665 0,0 z m 9.8998,-4.3874 c 0.51831,0.79406 -1.1438,1.0976 0,0 z m 3.7124,-1.0125 c 3.238,1.9919 -3.509,2.9338 0,0 z m -0.84373,-0.78748 c 0.99844,0.34781 -1.3271,0.39201 0,0 z m -2.9812,0 c 0.6799,1.1895 -1.189,0.98344 0,0 z m 0.61874,-1.7437 c -0.26221,3.7582 3.4606,-0.04853 0,0 z m -0.225,-0.95623 c 3.6045,-0.37558 -0.67576,5.9483 0.0424,1.2667 0.12076,-0.42243 -0.008,-0.84199 -0.0424,-1.2667 z m 40.949,-0.44999 c 0.18144,2.2027 -0.8061,2.6532 0,0 z m -34.143,-1.0125 c 1.5202,3.126 -3.068,2.5224 0,0 z m 37.124,-1.125 c 1.17,1.9073 0.27072,1.6045 0,0 z m -40.387,-0.225 c 2.6359,-1.6583 0.35489,3.1639 0,0 z m -1.9125,-0.05625 c 0.12619,-0.35246 0.14497,0.22493 0,0 z m -1.4625,-0.05625 c 0.30205,-0.50696 0.0971,0.41617 0,0 z m 41.343,-2.5312 c 0.56474,0.98816 -0.26591,3.0833 -0.14198,0.83818 z m -16.65,-0.05625 c 1.1963,1.0495 -1.3022,1.241 0,0 z m 13.05,-2.4187 c 3.4172,-1.0722 2.5573,6.9014 0.61812,1.7011 -0.3053,-0.52256 -0.55062,-1.0939 -0.61812,-1.7011 z m -56.249,-1.4625 c 3.1811,0.60201 3.9626,9.8758 0.0817,5.3209 -0.97786,-1.5551 -1.4914,-3.841 -0.0817,-5.3209 z m 9.8998,-1.0687 c 3.5649,-0.72889 0.5089,4.1672 0,0 z m -1.7437,-3.3187 c -0.82238,1.0448 -1.1404,-0.22405 0,0 z m 30.937,1.4625 c -0.90063,1.4126 0.89156,-0.44727 0,0 z m 0.225,-3.8812 c 0.21891,3.475 3.3378,5.9972 3.4149,8.9526 -3.1328,4.2373 -2.566,-6.5054 -4.7519,-1.3305 -2.0491,1.7742 0.0815,-3.8225 1.0388,-4.8672 0.3804,-0.85354 0.60088,-1.8407 0.29811,-2.755 z m -9.8435,-1.0125 c -0.13125,0.075 -0.13125,0.075 0,0 z m 12.15,-0.67499 c -0.61146,1.6593 -1.7873,-0.78702 0,0 z m -19.687,0.56249 c -0.0325,0.0342 -0.0325,0.0342 0,0 z m 9.1123,-1.125 c -0.25529,0.07961 0.25529,0.07961 0,0 z m 1.8562,0.225 c 1.8408,1.3862 1.0222,-2.1706 0,0 z m -1.125,-0.84373 c 1.4687,0.03492 1.3492,-1.4348 0,0 z m -1.575,-1.5187 c -0.2673,3.0118 2.9567,1.3769 0,0 z m -31.218,22.725 c -0.0862,3.2063 4.18,0.22452 0.77622,-0.009 z m -9.731,13.331 c -0.0435,0.03319 -0.0435,0.03319 0,0 z m 8.9436,-6.9748 c -3.0367,-4.6467 -8.3996,3.1184 -8.318,5.8289 3.3945,0.26986 5.283,-4.4748 8.318,-5.8289 z m 1.6312,1.5187 c 2.0474,-1.0884 4.5911,4.7045 3.2783,0.20142 1.0734,1.441 5.6758,3.5789 2.8385,0.26883 -2.5573,-4.1467 4.3438,-4.9239 5.8449,-5.901 -1.4423,-1.732 -0.64143,-4.5562 -0.64388,-5.4041 -4.492,-0.33915 -5.9346,6.5876 -10.696,5.8339 -3.7554,-2.1082 -4.2364,-11.085 -9.6898,-9.3417 1.8879,2.9375 1.9692,10.141 7.111,8.5658 3.4558,0.83152 -0.79715,4.8265 1.9572,5.7768 z m 3.2062,12.768 c -0.0802,-1.3573 -0.9754,-0.14132 0,0 z m 9.8998,34.424 c -0.33075,1.4532 0.39438,1.1305 0,0 z m 21.993,0.05625 c 2.7289,4.0776 3.6955,-5.1742 0,0 z m 8.6061,-1.9125 c -3.3657,0.30173 1.3162,4.8402 0.0362,0.59798 -0.0247,-0.19807 -0.0204,-0.39904 -0.0362,-0.59798 z m 5.2874,0.67498 c 1.1832,0.78678 0.82944,-0.16383 0,0 z m 1.1812,-65.136 c -0.75312,2.6028 2.9067,2.6869 0.41277,0.43931 z m -0.44999,-7.3686 c -1.4139,3.4777 6.6652,5.5346 3.4764,1.1404 -0.9899,-0.78768 -2.2854,-0.9 -3.4764,-1.1404 z m -3.5999,-3.5437 c 0.81047,3.1461 8.2908,1.3132 3.4219,-0.65628 -1.1452,-0.39938 -2.5265,-0.19527 -3.4219,0.65628 z m -8.7748,-3.8249 c -1.5511,1.8948 -1.9093,7.3335 1.583,3.8545 1.2782,-1.3129 -0.0613,-3.4942 -1.583,-3.8545 z" />
    </g>
  </g>
</svg>
